<svg width="32" height="32" viewBox="0 0 32 32" fill="none" xmlns="http://www.w3.org/2000/svg">
<path d="M21.2667 16.4L15.6 10.7334C15.4667 10.6 15.3722 10.4556 15.3167 10.3C15.2611 10.1445 15.2333 9.97782 15.2333 9.80004C15.2333 9.62226 15.2611 9.4556 15.3167 9.30004C15.3722 9.14449 15.4667 9.00004 15.6 8.86671L21.2667 3.20004C21.4 3.06671 21.5444 2.97226 21.7 2.91671C21.8556 2.86115 22.0222 2.83337 22.2 2.83337C22.3778 2.83337 22.5444 2.86115 22.7 2.91671C22.8556 2.97226 23 3.06671 23.1333 3.20004L28.8 8.86671C28.9333 9.00004 29.0278 9.14449 29.0833 9.30004C29.1389 9.4556 29.1667 9.62226 29.1667 9.80004C29.1667 9.97782 29.1389 10.1445 29.0833 10.3C29.0278 10.4556 28.9333 10.6 28.8 10.7334L23.1333 16.4C23 16.5334 22.8556 16.6278 22.7 16.6834C22.5444 16.7389 22.3778 16.7667 22.2 16.7667C22.0222 16.7667 21.8556 16.7389 21.7 16.6834C21.5444 16.6278 21.4 16.5334 21.2667 16.4ZM4 13.3334V5.33337C4 4.9556 4.12778 4.63893 4.38333 4.38337C4.63889 4.12782 4.95556 4.00004 5.33333 4.00004H13.3333C13.7111 4.00004 14.0278 4.12782 14.2833 4.38337C14.5389 4.63893 14.6667 4.9556 14.6667 5.33337V13.3334C14.6667 13.7112 14.5389 14.0278 14.2833 14.2834C14.0278 14.5389 13.7111 14.6667 13.3333 14.6667H5.33333C4.95556 14.6667 4.63889 14.5389 4.38333 14.2834C4.12778 14.0278 4 13.7112 4 13.3334ZM17.3333 26.6667V18.6667C17.3333 18.2889 17.4611 17.9723 17.7167 17.7167C17.9722 17.4612 18.2889 17.3334 18.6667 17.3334H26.6667C27.0444 17.3334 27.3611 17.4612 27.6167 17.7167C27.8722 17.9723 28 18.2889 28 18.6667V26.6667C28 27.0445 27.8722 27.3612 27.6167 27.6167C27.3611 27.8723 27.0444 28 26.6667 28H18.6667C18.2889 28 17.9722 27.8723 17.7167 27.6167C17.4611 27.3612 17.3333 27.0445 17.3333 26.6667ZM4 26.6667V18.6667C4 18.2889 4.12778 17.9723 4.38333 17.7167C4.63889 17.4612 4.95556 17.3334 5.33333 17.3334H13.3333C13.7111 17.3334 14.0278 17.4612 14.2833 17.7167C14.5389 17.9723 14.6667 18.2889 14.6667 18.6667V26.6667C14.6667 27.0445 14.5389 27.3612 14.2833 27.6167C14.0278 27.8723 13.7111 28 13.3333 28H5.33333C4.95556 28 4.63889 27.8723 4.38333 27.6167C4.12778 27.3612 4 27.0445 4 26.6667ZM6.66667 12H12V6.66671H6.66667V12ZM22.2333 13.6L26 9.83337L22.2333 6.06671L18.4667 9.83337L22.2333 13.6ZM20 25.3334H25.3333V20H20V25.3334ZM6.66667 25.3334H12V20H6.66667V25.3334Z" fill="#E8EAED"/>
</svg>
